<?xml version="1.0" standalone="no"?><svg xmlns="http://www.w3.org/2000/svg" viewBox="0 0 1440 320"><path fill="#0099ff" fill-opacity="1" d="M0,288L12,250.7C24,213,48,139,72,112C96,85,120,107,144,144C168,181,192,235,216,245.3C240,256,264,224,288,213.3C312,203,336,213,360,202.7C384,192,408,160,432,138.7C456,117,480,107,504,106.7C528,107,552,117,576,122.7C600,128,624,128,648,149.3C672,171,696,213,720,218.7C744,224,768,192,792,186.7C816,181,840,203,864,181.3C888,160,912,96,936,96C960,96,984,160,1008,192C1032,224,1056,224,1080,218.7C1104,213,1128,203,1152,202.7C1176,203,1200,213,1224,186.7C1248,160,1272,96,1296,106.7C1320,117,1344,203,1368,229.3C1392,256,1416,224,1428,208L1440,192L1440,320L1428,320C1416,320,1392,320,1368,320C1344,320,1320,320,1296,320C1272,320,1248,320,1224,320C1200,320,1176,320,1152,320C1128,320,1104,320,1080,320C1056,320,1032,320,1008,320C984,320,960,320,936,320C912,320,888,320,864,320C840,320,816,320,792,320C768,320,744,320,720,320C696,320,672,320,648,320C624,320,600,320,576,320C552,320,528,320,504,320C480,320,456,320,432,320C408,320,384,320,360,320C336,320,312,320,288,320C264,320,240,320,216,320C192,320,168,320,144,320C120,320,96,320,72,320C48,320,24,320,12,320L0,320Z"></path></svg>