<?xml version="1.0" standalone="no"?><svg xmlns="http://www.w3.org/2000/svg" viewBox="0 0 1440 320"><path fill="#0099ff" fill-opacity="1" d="M0,224L6.2,197.3C12.3,171,25,117,37,101.3C49.2,85,62,107,74,144C86.2,181,98,235,111,218.7C123.1,203,135,117,148,106.7C160,96,172,160,185,186.7C196.9,213,209,203,222,213.3C233.8,224,246,256,258,240C270.8,224,283,160,295,165.3C307.7,171,320,245,332,245.3C344.6,245,357,171,369,154.7C381.5,139,394,181,406,186.7C418.5,192,431,160,443,154.7C455.4,149,468,171,480,192C492.3,213,505,235,517,229.3C529.2,224,542,192,554,170.7C566.2,149,578,139,591,138.7C603.1,139,615,149,628,170.7C640,192,652,224,665,229.3C676.9,235,689,213,702,218.7C713.8,224,726,256,738,250.7C750.8,245,763,203,775,197.3C787.7,192,800,224,812,202.7C824.6,181,837,107,849,80C861.5,53,874,75,886,112C898.5,149,911,203,923,229.3C935.4,256,948,256,960,224C972.3,192,985,128,997,112C1009.2,96,1022,128,1034,154.7C1046.2,181,1058,203,1071,192C1083.1,181,1095,139,1108,138.7C1120,139,1132,181,1145,170.7C1156.9,160,1169,96,1182,90.7C1193.8,85,1206,139,1218,165.3C1230.8,192,1243,192,1255,176C1267.7,160,1280,128,1292,122.7C1304.6,117,1317,139,1329,154.7C1341.5,171,1354,181,1366,208C1378.5,235,1391,277,1403,293.3C1415.4,309,1428,299,1434,293.3L1440,288L1440,320L1433.8,320C1427.7,320,1415,320,1403,320C1390.8,320,1378,320,1366,320C1353.8,320,1342,320,1329,320C1316.9,320,1305,320,1292,320C1280,320,1268,320,1255,320C1243.1,320,1231,320,1218,320C1206.2,320,1194,320,1182,320C1169.2,320,1157,320,1145,320C1132.3,320,1120,320,1108,320C1095.4,320,1083,320,1071,320C1058.5,320,1046,320,1034,320C1021.5,320,1009,320,997,320C984.6,320,972,320,960,320C947.7,320,935,320,923,320C910.8,320,898,320,886,320C873.8,320,862,320,849,320C836.9,320,825,320,812,320C800,320,788,320,775,320C763.1,320,751,320,738,320C726.2,320,714,320,702,320C689.2,320,677,320,665,320C652.3,320,640,320,628,320C615.4,320,603,320,591,320C578.5,320,566,320,554,320C541.5,320,529,320,517,320C504.6,320,492,320,480,320C467.7,320,455,320,443,320C430.8,320,418,320,406,320C393.8,320,382,320,369,320C356.9,320,345,320,332,320C320,320,308,320,295,320C283.1,320,271,320,258,320C246.2,320,234,320,222,320C209.2,320,197,320,185,320C172.3,320,160,320,148,320C135.4,320,123,320,111,320C98.5,320,86,320,74,320C61.5,320,49,320,37,320C24.6,320,12,320,6,320L0,320Z"></path></svg>